<svg xmlns="http://www.w3.org/2000/svg" version="1.1" xmlns:xlink="http://www.w3.org/1999/xlink" xmlns:svgjs="http://svgjs.com/svgjs" width="512" height="512" x="0" y="0" viewBox="0 0 64 64" style="enable-background:new 0 0 512 512" xml:space="preserve"><g><g xmlns="http://www.w3.org/2000/svg"><g><path d="m51.996 64c-.553 0-1-.447-1-1s.447-1 1-1c3.859 0 7-3.141 7-7 0-.553.447-1 1-1s1 .447 1 1c0 4.963-4.037 9-9 9z" fill="#000000" data-original="#000000"></path></g><g><path d="m59.995 56c-.511 0-.946-.389-.995-.906l-3.002-31.998c-.051-.55.353-1.038.902-1.09.562-.048 1.038.354 1.09.902l3.002 31.998c.051.55-.353 1.038-.902 1.09-.032.003-.064.004-.095.004z" fill="#000000" data-original="#000000"></path></g><g><path d="m12.004 64c-4.963 0-9-4.037-9-9 0-.553.447-1 1-1s1 .447 1 1c0 3.859 3.141 7 7 7 .553 0 1 .447 1 1s-.447 1-1 1z" fill="#000000" data-original="#000000"></path></g><g><path d="m4.005 56c-.031 0-.063-.001-.095-.004-.55-.052-.953-.54-.902-1.09l3.002-31.998c.052-.549.528-.951 1.09-.902.55.052.953.54.902 1.09l-3.002 31.998c-.049.517-.484.906-.995.906z" fill="#000000" data-original="#000000"></path></g><g><path d="m51.996 64h-39.992c-.553 0-1-.447-1-1s.447-1 1-1h39.992c.553 0 1 .447 1 1s-.447 1-1 1z" fill="#000000" data-original="#000000"></path></g><g><path d="m43 24.002h-22c-.553 0-1-.447-1-1s.447-1 1-1h22c.553 0 1 .447 1 1s-.447 1-1 1z" fill="#000000" data-original="#000000"></path></g><g><path d="m21 34.996h-4c-.553 0-1-.447-1-1s.447-1 1-1h4c.553 0 1 .447 1 1s-.447 1-1 1z" fill="#000000" data-original="#000000"></path></g><g><path d="m21 34.996c-.553 0-1-.447-1-1v-17.996c0-.553.447-1 1-1s1 .447 1 1v17.996c0 .553-.447 1-1 1z" fill="#000000" data-original="#000000"></path></g><g><path d="m17 34.996c-.553 0-1-.447-1-1v-17.996c0-.553.447-1 1-1s1 .447 1 1v17.996c0 .553-.447 1-1 1z" fill="#000000" data-original="#000000"></path></g><g><path d="m47 34.996h-4c-.553 0-1-.447-1-1s.447-1 1-1h4c.553 0 1 .447 1 1s-.447 1-1 1z" fill="#000000" data-original="#000000"></path></g><g><path d="m47 34.996c-.553 0-1-.447-1-1v-17.996c0-.553.447-1 1-1s1 .447 1 1v17.996c0 .553-.447 1-1 1z" fill="#000000" data-original="#000000"></path></g><g><path d="m43 34.996c-.553 0-1-.447-1-1v-17.996c0-.553.447-1 1-1s1 .447 1 1v17.996c0 .553-.447 1-1 1z" fill="#000000" data-original="#000000"></path></g><g><path d="m47 17c-.553 0-1-.447-1-1 0-7.72-6.28-14-14-14s-14 6.28-14 14c0 .553-.447 1-1 1s-1-.447-1-1c0-8.822 7.178-16 16-16s16 7.178 16 16c0 .553-.447 1-1 1z" fill="#000000" data-original="#000000"></path></g><g><path d="m43 17c-.553 0-1-.447-1-1 0-5.514-4.486-10-10-10s-10 4.486-10 10c0 .553-.447 1-1 1s-1-.447-1-1c0-6.617 5.383-12 12-12s12 5.383 12 12c0 .553-.447 1-1 1z" fill="#000000" data-original="#000000"></path></g><g><path d="m17 24.002h-9.994c-.553 0-1-.447-1-1s.447-1 1-1h9.994c.553 0 1 .447 1 1s-.447 1-1 1z" fill="#000000" data-original="#000000"></path></g><g><path d="m56.994 24.002h-9.994c-.553 0-1-.447-1-1s.447-1 1-1h9.994c.553 0 1 .447 1 1s-.447 1-1 1z" fill="#000000" data-original="#000000"></path></g><g><path d="m37 34h-10c-.553 0-1-.447-1-1v-5c0-.553.447-1 1-1h10c.553 0 1 .447 1 1v5c0 .553-.447 1-1 1zm-9-2h8v-3h-8z" fill="#000000" data-original="#000000"></path></g></g></g></svg>