<svg xmlns="http://www.w3.org/2000/svg" version="1.1" xmlns:xlink="http://www.w3.org/1999/xlink" xmlns:svgjs="http://svgjs.com/svgjs" width="512" height="512" x="0" y="0" viewBox="0 0 480 480" style="enable-background:new 0 0 512 512" xml:space="preserve"><g>
<g xmlns="http://www.w3.org/2000/svg">
	<g>
		<path d="M479.88,422.632l-32-184C447.216,234.8,443.888,232,440,232H264v-24h56h48h72c4.424,0,8-3.584,8-8v-40    c0-4.416-3.576-8-8-8h-72h-48V72c0-39.696-32.296-72-72-72H72C32.296,0,0,32.304,0,72v128c0,4.416,3.576,8,8,8h48v88    c0,4.416,3.576,8,8,8h164.752L208.12,422.632c-0.08,0.448-0.12,0.904-0.12,1.368v48c0,4.416,3.576,8,8,8h56    c2.128,0,4.16-0.84,5.656-2.344l32-32c0.912-0.912,1.592-2.032,1.976-3.272L344,338.824l32.368,103.568    c0.384,1.232,1.064,2.352,1.976,3.272l32,32C411.84,479.16,413.872,480,416,480h56c4.424,0,8-3.584,8-8v-48    C480,423.536,479.96,423.08,479.88,422.632z M376,168h56v24h-56V168z M328,168h32v24h-32V168z M312,192h-56v-24h56V192z     M172.688,16L160,28.688L147.312,16H172.688z M124.688,16l29.656,29.656C155.904,47.216,157.952,48,160,48    c2.048,0,4.096-0.784,5.656-2.344L195.312,16h25.376L160,76.688L99.312,16H124.688z M72,288v-88V96H56v96H16V72    c0-30.88,25.128-56,56-56h4.688l77.656,77.656C155.904,95.216,157.952,96,160,96c2.048,0,4.096-0.784,5.656-2.344L243.312,16H248    c30.872,0,56,25.12,56,56v80h-40V96h-16v56c-4.424,0-8,3.584-8,8v40c0,4.416,3.576,8,8,8v24c-3.888,0-7.216,2.8-7.88,6.632    L231.528,288H72z M464,464h-44.688l-28.264-28.264l-39.416-126.12c-1.04-3.344-4.128-5.616-7.632-5.616    c-3.504,0-6.592,2.272-7.632,5.616l-39.416,126.12L268.688,464H224v-39.312L254.728,248H256h177.272L464,424.688V464z" fill="#000000" data-original="#000000"></path>
	</g>
</g>
<g xmlns="http://www.w3.org/2000/svg">
	<g>
		<path d="M184,320h-64H64c-4.424,0-8,3.584-8,8v68c0,11.024-8.968,20-20,20c-19.848,0-36,16.152-36,36v20c0,4.416,3.576,8,8,8h56    h120c4.424,0,8-3.584,8-8V328C192,323.584,188.424,320,184,320z M56,452v12H16v-12c0-11.024,8.968-20,20-20    c19.848,0,36-16.152,36-36v-60h40v60c0,11.024-8.968,20-20,20C72.152,416,56,432.152,56,452z M176,464h-31.192    C148,448.352,160.352,436,176,432.808V464z M176,416.64c-24.472,3.528-43.832,22.888-47.36,47.36H72v-12c0-11.024,8.968-20,20-20    c19.848,0,36-16.152,36-36v-60h48V416.64z" fill="#000000" data-original="#000000"></path>
	</g>
</g>
<g xmlns="http://www.w3.org/2000/svg">
	<g>
		<rect x="88" y="256" width="16" height="16" fill="#000000" data-original="#000000"></rect>
	</g>
</g>
<g xmlns="http://www.w3.org/2000/svg">
	<g>
		<rect x="120" y="256" width="16" height="16" fill="#000000" data-original="#000000"></rect>
	</g>
</g>
<g xmlns="http://www.w3.org/2000/svg">
	<g>
		<rect x="152" y="256" width="16" height="16" fill="#000000" data-original="#000000"></rect>
	</g>
</g>
<g xmlns="http://www.w3.org/2000/svg">
</g>
<g xmlns="http://www.w3.org/2000/svg">
</g>
<g xmlns="http://www.w3.org/2000/svg">
</g>
<g xmlns="http://www.w3.org/2000/svg">
</g>
<g xmlns="http://www.w3.org/2000/svg">
</g>
<g xmlns="http://www.w3.org/2000/svg">
</g>
<g xmlns="http://www.w3.org/2000/svg">
</g>
<g xmlns="http://www.w3.org/2000/svg">
</g>
<g xmlns="http://www.w3.org/2000/svg">
</g>
<g xmlns="http://www.w3.org/2000/svg">
</g>
<g xmlns="http://www.w3.org/2000/svg">
</g>
<g xmlns="http://www.w3.org/2000/svg">
</g>
<g xmlns="http://www.w3.org/2000/svg">
</g>
<g xmlns="http://www.w3.org/2000/svg">
</g>
<g xmlns="http://www.w3.org/2000/svg">
</g>
</g></svg>