<svg xmlns="http://www.w3.org/2000/svg" version="1.1" xmlns:xlink="http://www.w3.org/1999/xlink" xmlns:svgjs="http://svgjs.com/svgjs" width="512" height="512" x="0" y="0" viewBox="0 0 510.19 510.19" style="enable-background:new 0 0 512 512" xml:space="preserve"><g><path xmlns="http://www.w3.org/2000/svg" d="m508.38 351.352-7.285-39.552-.295-1.604c0-.001 0-.002 0-.003s-.001-.002-.001-.003l-31.619-171.658c-3.634-19.727-12.599-37.958-25.931-52.822-18.031-38.561-60.454-61.75-104.222-53.687-43.772 8.063-75.147 44.846-78.253 87.3-2.578 6.71-4.482 13.623-5.678 20.649-1.196-7.026-3.1-13.94-5.678-20.651-3.107-42.454-34.482-79.236-78.254-87.299-25.183-4.639-50.665.807-71.752 15.334-14.289 9.844-25.387 23.065-32.51 38.398-13.31 14.854-22.26 33.068-25.891 52.776l-.698 3.791c0 .001-.001.003-.001.004s0 .003 0 .004l-31.217 169.471-7.285 39.552c-10.858 58.949 28.267 115.741 87.216 126.599 6.646 1.224 13.306 1.829 19.921 1.829 21.81 0 43.094-6.578 61.44-19.216 23.911-16.473 39.977-41.271 45.237-69.828l7.285-39.552 31.916-173.269c.1-.541.179-1.084.27-1.626.091.542.171 1.085.27 1.626l31.915 173.269 7.285 39.552c5.26 28.556 21.325 53.354 45.236 69.828 18.348 12.64 39.629 19.216 61.44 19.216 6.614 0 13.278-.605 19.922-1.829 58.95-10.858 98.074-67.65 87.217-126.599zm-208.002-11.869-28.203-153.114 31.521-5.806 18.257 13.707c6.713 5.041 11.875 11.699 15.089 19.292l-10.853 1.999c-4.074.75-6.768 4.661-6.018 8.734.666 3.615 3.819 6.143 7.367 6.143.451 0 .908-.041 1.367-.125l11.965-2.204 3.68 19.98-11.964 2.204c-4.074.75-6.768 4.661-6.018 8.734.666 3.615 3.819 6.143 7.367 6.143.451 0 .908-.041 1.367-.125l11.965-2.204 2.399 13.022c.433 2.351.686 4.708.764 7.054l-11.447 2.109c-4.074.75-6.768 4.661-6.018 8.734.666 3.615 3.819 6.143 7.367 6.143.451 0 .908-.041 1.367-.125l6.589-1.214c-1.397 4.42-3.458 8.656-6.163 12.582l-15.508 22.511c-.245.356-.447.728-.624 1.107zm-31.537-174.057c.874 1.959 1.822 3.885 2.83 5.783l-2.139.394c-.297-2.056-.531-4.116-.691-6.177zm136.061-3.505-4.803 7.619c-6.501 10.313-9.762 22.16-9.553 34.168l-38.487 7.089c-4.083-11.294-11.352-21.202-21.101-28.521l-7.202-5.407zm-3.689 104.448c.432 2.344 1.005 4.637 1.687 6.884l-37.603 6.926c-.164-2.343-.446-4.689-.877-7.033l-2.399-13.022 36.794-6.777zm-41.91-20.996-3.68-19.98 36.794-6.777 3.68 19.98zm-4.822 74.283c5.066-7.355 8.411-15.538 9.968-24.068l44.734-8.24c4.494 7.416 10.535 13.87 17.89 18.937l11.295 7.781-91.668 16.885zm104.589-9.403c-.3-.292-.621-.567-.977-.812l-22.511-15.508c-3.926-2.705-7.361-5.928-10.242-9.56l7.813-1.439c4.074-.75 6.768-4.661 6.018-8.734-.751-4.075-4.668-6.769-8.734-6.018l-12.673 2.334c-.762-2.22-1.366-4.512-1.799-6.863l-2.399-13.022 13.19-2.429c4.074-.75 6.768-4.661 6.018-8.734-.751-4.075-4.667-6.768-8.734-6.018l-13.19 2.43-3.68-19.98 13.188-2.429c4.074-.75 6.768-4.661 6.018-8.734-.751-4.075-4.666-6.768-8.734-6.018l-12.077 2.225c.298-8.24 2.749-16.301 7.226-23.403l12.175-19.313 31.521-5.806 28.203 153.115zm-7.516-172.178c.265-2.134.465-4.272.583-6.415.585 1.984 1.101 3.993 1.556 6.021zm-109.811-91.3c21.244-3.912 42.737.68 60.526 12.935 12.21 8.411 21.668 19.742 27.666 32.891.073.186.15.371.239.552 2.614 5.847 4.557 12.042 5.747 18.501 1.806 9.805 1.808 19.638.021 29.296l-16.129 2.971c2.665-9.579 3.167-19.715 1.356-29.55-2.264-12.294-7.963-23.639-16.479-32.807-2.82-3.034-7.563-3.21-10.6-.39-3.035 2.819-3.21 7.564-.391 10.599 6.573 7.076 10.971 15.829 12.718 25.315 1.889 10.254.625 20.541-3.63 29.969l-82.348 15.168c-7.336-7.293-12.182-16.455-14.071-26.708-2.457-13.338.44-26.853 8.158-38.056 7.719-11.203 19.314-18.726 32.651-21.183 7.629-1.405 15.269-1.072 22.707.989 3.993 1.109 8.125-1.233 9.23-5.225 1.106-3.992-1.233-8.125-5.225-9.23-9.647-2.674-19.55-3.105-29.43-1.286-17.278 3.183-32.296 12.922-42.286 27.425-9.991 14.502-13.741 32.005-10.559 49.283 1.812 9.835 5.893 19.127 11.796 27.128l-16.122 2.97c-5.112-8.388-8.62-17.574-10.427-27.38-8.073-43.852 21.032-86.099 64.882-94.177zm-288.038 105.644 31.522 5.806 12.174 19.313c4.477 7.101 6.928 15.162 7.226 23.403l-12.078-2.225c-4.07-.75-7.983 1.944-8.734 6.018-.75 4.073 1.944 7.984 6.018 8.734l13.189 2.429-3.68 19.98-13.189-2.429c-4.074-.749-7.984 1.943-8.734 6.018-.75 4.073 1.944 7.984 6.018 8.734l13.189 2.429-2.399 13.022c-.433 2.351-1.037 4.643-1.799 6.863l-12.672-2.334c-4.072-.75-7.984 1.943-8.734 6.018-.75 4.073 1.944 7.984 6.018 8.734l7.813 1.439c-2.881 3.632-6.316 6.856-10.242 9.56l-22.51 15.508c-.356.245-.677.521-.977.812l-25.619-4.719zm2.791-14.738c.455-2.027.971-4.035 1.556-6.019.119 2.142.318 4.28.583 6.413zm129.936 39.186-7.202 5.407c-9.748 7.32-17.017 17.227-21.1 28.521l-38.486-7.089c.209-12.008-3.053-23.855-9.553-34.168l-4.802-7.619zm-30.722 142.789 7.781 11.295-91.668-16.885 11.294-7.781c7.355-5.067 13.396-11.521 17.89-18.937l44.734 8.24c1.557 8.53 4.902 16.713 9.969 24.068zm-10.817-39.476-37.604-6.927c.681-2.247 1.255-4.54 1.687-6.884l2.399-13.022 36.794 6.777-2.399 13.022c-.431 2.344-.713 4.691-.877 7.034zm-30.801-41.585 3.68-19.98 36.794 6.777-3.68 19.98zm-91.122 81.725 183.927 33.879c-5.512 22.19-18.741 41.375-37.734 54.459-20.611 14.2-45.517 19.526-70.136 14.989-48.876-9.003-81.935-54.639-76.057-103.327zm186.842 19.163-25.619-4.719c-.176-.379-.378-.751-.623-1.107l-15.508-22.511c-2.704-3.926-4.766-8.162-6.163-12.582l6.59 1.214c.459.084.916.125 1.367.125 3.547 0 6.701-2.529 7.367-6.143.75-4.073-1.944-7.984-6.018-8.734l-11.447-2.109c.079-2.346.331-4.703.764-7.054l2.399-13.022 11.965 2.204c.459.084.916.125 1.367.125 3.547 0 6.701-2.529 7.367-6.143.75-4.073-1.944-7.984-6.018-8.734l-11.965-2.204 3.68-19.98 11.965 2.204c.459.084.916.125 1.367.125 3.548 0 6.701-2.528 7.367-6.143.75-4.073-1.944-7.984-6.018-8.734l-10.853-1.999c3.214-7.593 8.377-14.252 15.089-19.292l18.256-13.707 31.522 5.806zm28.707-168.274c1.008-1.899 1.956-3.825 2.831-5.785-.16 2.062-.394 4.123-.691 6.18zm-130.598-111.499c17.787-12.254 39.283-16.848 60.525-12.935 43.852 8.078 72.957 50.325 64.879 94.177-1.806 9.806-5.314 18.992-10.426 27.38l-16.122-2.97c5.903-8.001 9.984-17.293 11.796-27.128 3.183-17.278-.567-34.78-10.558-49.283s-25.009-24.242-42.287-27.425c-10.76-1.982-21.926-1.24-32.288 2.145-3.938 1.286-6.087 5.521-4.801 9.458 1.287 3.938 5.522 6.087 9.458 4.801 7.99-2.61 16.604-3.182 24.914-1.651 13.337 2.457 24.933 9.979 32.651 21.183 7.718 11.203 10.616 24.718 8.159 38.056-1.889 10.253-6.735 19.415-14.071 26.708l-82.348-15.168c-4.255-9.427-5.519-19.715-3.631-29.969 1.601-8.691 5.47-16.849 11.188-23.592 2.679-3.159 2.291-7.892-.869-10.571-3.159-2.68-7.892-2.29-10.571.869-7.412 8.739-12.426 19.313-14.501 30.578-1.812 9.835-1.309 19.971 1.356 29.55l-16.129-2.971c-1.787-9.659-1.785-19.492.021-29.297 1.19-6.458 3.132-12.653 5.746-18.499.09-.183.168-.37.241-.558 6.001-13.148 15.458-24.477 27.668-32.888zm53.957 388.5c-20.612 14.2-45.519 19.524-70.136 14.988-44.92-8.274-76.479-47.492-76.731-91.583 13.398 33.566 43.207 59.767 81.3 66.783 6.646 1.224 13.306 1.829 19.921 1.829 21.81-.001 43.095-6.578 61.441-19.217 6.765-4.66 12.901-9.988 18.343-15.878-6.734 17.35-18.477 32.289-34.138 43.078zm256.569 14.989c-24.616 4.534-49.524-.789-70.136-14.988-15.616-10.758-27.339-25.641-34.081-42.926 11.224 12.142 25.294 21.747 41.469 27.886.876.333 1.775.49 2.66.49 3.025 0 5.876-1.844 7.013-4.841 1.47-3.873-.478-8.203-4.351-9.673-29.108-11.048-50.341-35.078-57.747-64.944l183.946-33.883c5.878 48.688-27.181 94.324-76.057 103.327-6.999 1.289-14.12 1.786-21.167 1.478-4.099-.176-7.64 3.026-7.821 7.165-.181 4.138 3.026 7.64 7.165 7.821 1.569.069 3.142.103 4.716.103 6.623 0 13.271-.607 19.824-1.814 38.111-7.02 67.928-33.241 81.318-66.829-.066 18.687-5.726 36.911-16.558 52.634-14.2 20.611-35.577 34.459-60.193 38.994z" fill="#000000" data-original="#000000"></path></g></svg>